Coordinates
version=1
nRows=12
nColumns=24
inDegrees=yes

Units are S.I. units (second, meters, Newtons, ...)
If the header above contains a line with 'inDegrees', this indicates whether rotational values are in degrees (yes) or radians (no).

endheader
time	pelvis_tilt	pelvis_list	pelvis_rotation	pelvis_tx	pelvis_ty	pelvis_tz	lumbar_extension	lumbar_bending	lumbar_rotation	arm_flex_r	arm_add_r	arm_rot_r	elbow_flex_r	pro_sup_r	wrist_flex_r	wrist_dev_r	arm_flex_l	arm_add_l	arm_rot_l	elbow_flex_l	pro_sup_l	wrist_flex_l	wrist_dev_l
      7.62000000	    -14.96039020	      1.61498035	      3.02907680	      1.04675856	      0.89590604	      0.07720006	    -10.47812727	      4.45169488	      1.60307154	     20.58882562	    -16.63305318	     37.30728684	     12.98859075	     64.95912215	    -26.72780883	    -24.99999983	     29.99425682	    -20.08404428	     39.16407744	    140.38459983	     51.23616001	    -18.80877477	     -1.28336806
      7.62400000	    -14.58393521	      1.60164349	      2.83862573	      1.05330423	      0.89360442	      0.07254377	    -10.03285275	      4.54909461	      1.58768533	     19.50085285	    -17.47381842	     37.58060180	     13.80756958	     64.96601528	    -25.86513202	    -24.99999983	     31.87693581	    -15.29543380	     43.43122583	    132.11866615	     64.54725503	    -19.09638698	    -23.98581634
      7.62800000	    -14.89029281	      0.93653905	      3.38859793	      1.04778425	      0.89724617	      0.08166123	    -10.40497361	      3.78134018	      1.93354999	     21.13418586	    -15.32189934	     45.29461513	      9.35129480	     57.64943924	    -23.54408908	    -24.99999983	     33.64570075	    -17.14385254	     42.70564413	    133.94980348	     61.28660447	    -15.85111585	    -12.31933596
      7.63200000	    -15.02339133	      1.48192549	      3.19337546	      1.04543083	      0.89545535	      0.07578017	    -10.50364976	      4.39284336	      1.87138143	     20.22675425	    -17.14760810	     36.66981559	     13.79554785	     65.05611594	    -26.68292896	    -24.99999983	     33.27063793	    -16.73546371	     41.88175669	    134.40318732	     61.70638665	    -16.77343556	    -13.11137996
      7.63600000	    -14.95387782	      0.94925667	      3.29309332	      1.04672743	      0.89769951	      0.08119652	    -10.43529913	      3.82954394	      1.85750263	     21.41086994	    -15.32116445	     46.10686107	      9.19187771	     57.68450824	    -23.38664290	    -24.99999983	     33.58239276	    -16.94281612	     42.43670726	    133.82921457	     63.51199294	    -16.23324101	    -12.32230045
      7.64000000	    -15.04710770	      1.43461381	      3.12961072	      1.04565729	      0.89524552	      0.07592309	    -10.43611850	      4.42842223	      1.84715613	     20.17159425	    -17.09331942	     36.24138948	     13.90726955	     65.46154906	    -26.63334001	    -24.99999983	     33.12398431	    -16.53873353	     41.52931675	    134.33032004	     63.67374934	    -16.32665560	    -12.20672558
      7.64400000	    -15.04439390	      1.43570071	      3.13101322	      1.04548111	      0.89529815	      0.07597957	    -10.43421750	      4.42892775	      1.84854724	     20.17153306	    -17.09200638	     36.24162429	     13.90771581	     65.46176060	    -26.63328373	    -24.99999983	     33.12202638	    -16.53742190	     41.53112274	    134.33126290	     63.67376510	    -16.32652307	    -12.20674542
      7.64800000	    -15.08340741	      1.44217518	      3.17356076	      1.04521627	      0.89552725	      0.07597524	    -10.47447710	      4.42988108	      1.88892081	     20.19610131	    -17.10348954	     36.22946036	     13.89450944	     65.47738407	    -26.63654484	    -24.99999983	     33.05186808	    -16.47959780	     41.76986904	    134.48278805	     63.63528755	    -16.32282869	    -12.21631420
      7.65200000	    -15.08263272	      1.44421351	      3.17437249	      1.04517445	      0.89536530	      0.07610366	    -10.47458305	      4.43122432	      1.88920822	     20.19774469	    -17.10314651	     36.22923264	     13.89497044	     65.47747318	    -26.63656668	    -24.99999983	     33.05031429	    -16.47798199	     41.77201996	    134.48307408	     63.63484098	    -16.32296379	    -12.21641054
      7.65600000	    -15.06741114	      1.41906502	      3.14771629	      1.04529134	      0.89496504	      0.07641593	    -10.46119281	      4.40932499	      1.85723711	     20.23585154	    -17.03662570	     36.22168421	     13.91154647	     65.47456434	    -26.63676638	    -24.99999983	     33.02558094	    -16.38704601	     41.84351296	    134.52447457	     63.62448466	    -16.32638944	    -12.22215762
      7.66000000	    -14.91736359	      1.39817685	      3.17111759	      1.04744780	      0.89421696	      0.07675239	    -10.30322344	      4.37472663	      1.88421042	     19.85866890	    -16.90689992	     35.66543985	     13.86074429	     65.37867058	    -26.52016938	    -24.99999983	     32.84853723	    -16.42396578	     42.40029275	    134.72786482	     61.86095343	    -17.80665367	    -13.14270033
      7.66400000	    -14.91712785	      1.37679392	      3.14042079	      1.04718528	      0.89428101	      0.07696510	    -10.30474907	      4.35846069	      1.84887340	     19.89481131	    -16.84215068	     35.68225774	     13.89667441	     65.38936119	    -26.51838674	    -24.99999983	     32.81679193	    -16.35375361	     42.45974175	    134.71475023	     61.85156240	    -17.80758925	    -13.14516633
